<svg width="29" height="29" viewBox="0 0 29 29" fill="none" xmlns="http://www.w3.org/2000/svg">
<path d="M7.1084 23.8786H19.0842C19.512 23.8786 19.9259 23.7273 20.2527 23.4513C20.5795 23.1753 20.798 22.7926 20.8696 22.3709L24.0528 3.66054C24.1246 3.23907 24.3432 2.85661 24.67 2.58089C24.9968 2.30516 25.4105 2.15396 25.8381 2.15405H27.0259" stroke="#26395C" stroke-width="2.41424" stroke-linecap="round" stroke-linejoin="round"/>
<path d="M9.37162 26.5947C9.46115 26.5947 9.54866 26.6213 9.62311 26.671C9.69755 26.7208 9.75557 26.7915 9.78983 26.8742C9.82409 26.9569 9.83305 27.0479 9.81559 27.1357C9.79812 27.2235 9.75501 27.3042 9.6917 27.3675C9.6284 27.4308 9.54774 27.4739 9.45993 27.4914C9.37212 27.5088 9.2811 27.4999 9.19839 27.4656C9.11567 27.4313 9.04497 27.3733 8.99523 27.2989C8.94549 27.2244 8.91895 27.1369 8.91895 27.0474C8.91895 26.9273 8.96664 26.8122 9.05153 26.7273C9.13642 26.6424 9.25156 26.5947 9.37162 26.5947Z" stroke="#26395C" stroke-width="2.41424" stroke-linecap="round" stroke-linejoin="round"/>
<path d="M18.4253 26.5947C18.5149 26.5947 18.6024 26.6213 18.6768 26.671C18.7513 26.7208 18.8093 26.7915 18.8435 26.8742C18.8778 26.9569 18.8868 27.0479 18.8693 27.1357C18.8518 27.2235 18.8087 27.3042 18.7454 27.3675C18.6821 27.4308 18.6014 27.4739 18.5136 27.4914C18.4258 27.5088 18.3348 27.4999 18.2521 27.4656C18.1694 27.4313 18.0987 27.3733 18.0489 27.2989C17.9992 27.2244 17.9727 27.1369 17.9727 27.0474C17.9727 26.9273 18.0203 26.8122 18.1052 26.7273C18.1901 26.6424 18.3053 26.5947 18.4253 26.5947" stroke="#26395C" stroke-width="2.41424" stroke-linecap="round" stroke-linejoin="round"/>
<path d="M21.537 18.4466H6.96589C6.15842 18.4465 5.37415 18.1765 4.73769 17.6796C4.10124 17.1827 3.64911 16.4873 3.45317 15.704L1.70284 8.70267C1.66944 8.56915 1.66693 8.42977 1.69548 8.29513C1.72404 8.16049 1.78292 8.03414 1.86765 7.92567C1.95237 7.8172 2.06071 7.72948 2.18443 7.66917C2.30815 7.60887 2.44399 7.57756 2.58163 7.57764H23.3851" stroke="#26395C" stroke-width="2.41424" stroke-linecap="round" stroke-linejoin="round"/>
<circle cx="9.43222" cy="27.0475" r="1.00449" fill="#262F5C"/>
</svg>
