<svg width="134" height="37" viewBox="0 0 134 37" fill="none" xmlns="http://www.w3.org/2000/svg">
<path d="M53.0607 28.84L46.3628 15.9702V30.2238H42.6541V10.85H47.802L53.116 21.2565L58.43 10.85H63.5779V30.2238H59.7861V15.9979L53.0607 28.84ZM71.1079 30.4729C69.558 30.4729 68.2941 30.067 67.3162 29.2551C66.3383 28.4248 65.8493 27.3546 65.8493 26.0446C65.8493 24.6792 66.3752 23.609 67.4269 22.8341C68.4786 22.0591 69.9271 21.6717 71.7722 21.6717C72.3626 21.6717 72.9531 21.7178 73.5435 21.81C74.134 21.9023 74.7152 22.0407 75.2872 22.2252V21.2011C75.2872 20.3708 75.0288 19.7435 74.5122 19.3191C73.9956 18.8947 73.2391 18.6825 72.2427 18.6825C71.6338 18.6825 70.9696 18.784 70.25 18.987C69.5488 19.1715 68.7462 19.4667 67.8421 19.8727L66.4582 17.0773C67.5837 16.5607 68.6724 16.1732 69.7241 15.9149C70.7943 15.6565 71.846 15.5274 72.8793 15.5274C74.8166 15.5274 76.3204 15.9979 77.3906 16.9389C78.4792 17.8615 79.0235 19.1715 79.0235 20.869V30.2238H75.2872V29.2274C74.6783 29.6518 74.0325 29.9655 73.3498 30.1685C72.6855 30.3714 71.9382 30.4729 71.1079 30.4729ZM69.475 25.9616C69.475 26.5151 69.7149 26.9579 70.1946 27.2901C70.6743 27.6037 71.3109 27.7606 72.1043 27.7606C72.7317 27.7606 73.3036 27.6868 73.8203 27.5392C74.3554 27.3731 74.8443 27.1425 75.2872 26.8472V24.6884C74.8259 24.5039 74.3369 24.3748 73.8203 24.301C73.3221 24.2087 72.7962 24.1626 72.2427 24.1626C71.3755 24.1626 70.6928 24.3286 70.1946 24.6608C69.7149 24.9744 69.475 25.408 69.475 25.9616ZM81.8933 30.2238V15.8041H85.685V17.3817C86.1463 16.7544 86.6998 16.2839 87.3456 15.9702C88.0099 15.6381 88.7387 15.472 89.5321 15.472C89.9011 15.4905 90.2056 15.5274 90.4454 15.5827C90.7038 15.6196 90.9252 15.6934 91.1097 15.8041V19.1254C90.8329 18.9962 90.5285 18.904 90.1964 18.8486C89.8642 18.7748 89.5229 18.7379 89.1723 18.7379C88.4343 18.7379 87.7516 18.9224 87.1242 19.2914C86.5153 19.6605 86.0356 20.1956 85.685 20.8967V30.2238H81.8933ZM93.1641 30.2238V10.85L96.9558 10.0197V21.8931L103.183 15.8041H107.473L100.72 22.4189L107.888 30.2238H103.045L96.9558 23.6367V30.2238H93.1641ZM120.738 28.4248C119.853 29.1444 118.939 29.6703 117.998 30.0024C117.076 30.3345 116.043 30.5006 114.899 30.5006C113.81 30.5006 112.786 30.3068 111.827 29.9194C110.885 29.5319 110.064 29.006 109.363 28.3418C108.681 27.6775 108.136 26.8934 107.73 25.9892C107.343 25.0667 107.149 24.0795 107.149 23.0278C107.149 21.9945 107.334 21.0259 107.703 20.1217C108.09 19.1992 108.616 18.4058 109.28 17.7415C109.944 17.0588 110.729 16.5237 111.633 16.1363C112.555 15.7488 113.533 15.5551 114.567 15.5551C115.581 15.5551 116.522 15.758 117.39 16.1639C118.275 16.5514 119.032 17.0865 119.659 17.7692C120.305 18.4519 120.803 19.273 121.154 20.2325C121.523 21.1735 121.707 22.1975 121.707 23.3046V24.301H110.969C111.227 25.2051 111.725 25.9339 112.463 26.4874C113.201 27.041 114.068 27.3177 115.065 27.3177C115.692 27.3177 116.282 27.2163 116.836 27.0133C117.39 26.8103 117.86 26.5243 118.248 26.1553L120.738 28.4248ZM114.483 18.6825C113.616 18.6825 112.869 18.9501 112.242 19.4852C111.614 20.0018 111.181 20.703 110.941 21.5886H117.998C117.759 20.7399 117.316 20.0479 116.67 19.5129C116.043 18.9593 115.314 18.6825 114.483 18.6825ZM125.455 26.1553V18.987H122.493V15.8041H125.455V12.1231L129.247 11.2651V15.8041H133.343V18.987H129.247V25.3804C129.247 26.0631 129.394 26.5428 129.689 26.8196C129.985 27.0963 130.501 27.2347 131.239 27.2347C131.59 27.2347 131.922 27.2163 132.236 27.1794C132.549 27.124 132.891 27.0317 133.26 26.9026V30.0024C132.854 30.1316 132.365 30.233 131.793 30.3068C131.221 30.3991 130.732 30.4452 130.326 30.4452C128.721 30.4452 127.503 30.0854 126.673 29.3658C125.861 28.6278 125.455 27.5576 125.455 26.1553Z" fill="#26395C"/>
<path d="M30.5239 31.2914L29.1479 11.4161C29.1065 10.809 28.8367 10.2401 28.3928 9.82395C27.9488 9.4078 27.3637 9.17529 26.7552 9.17321H24.0797C23.9783 9.17321 23.8811 9.13295 23.8094 9.06127C23.7377 8.98959 23.6975 8.89237 23.6975 8.791V8.40878C23.6975 6.17863 22.8115 4.03983 21.2346 2.46287C19.6576 0.885922 17.5188 0 15.2887 0C13.0585 0 10.9197 0.885922 9.34279 2.46287C7.76583 4.03983 6.87991 6.17863 6.87991 8.40878V8.791C6.87991 8.89237 6.83964 8.98959 6.76796 9.06127C6.69628 9.13295 6.59906 9.17321 6.49769 9.17321H3.82217C3.21414 9.1744 2.62909 9.40572 2.18465 9.82067C1.7402 10.2356 1.46931 10.8034 1.42644 11.4099L0.0504527 31.2852C0.0168175 31.8153 0 32.3437 0 32.8707C0 33.3726 0.0988634 33.8696 0.290946 34.3334C0.483028 34.7971 0.764567 35.2184 1.11949 35.5734C1.47441 35.9283 1.89576 36.2098 2.35949 36.4019C2.82322 36.594 3.32024 36.6929 3.82217 36.6929H26.7552C27.2571 36.6929 27.7542 36.594 28.2179 36.4019C28.6816 36.2098 29.103 35.9283 29.4579 35.5734C29.8128 35.2184 30.0944 34.7971 30.2864 34.3334C30.4785 33.8696 30.5774 33.3726 30.5774 32.8707C30.5774 32.3437 30.5595 31.8173 30.5239 31.2914ZM9.17321 18.3464C9.4756 18.3464 9.77119 18.4361 10.0226 18.6041C10.274 18.7721 10.47 19.0109 10.5857 19.2902C10.7014 19.5696 10.7317 19.877 10.6727 20.1736C10.6137 20.4701 10.4681 20.7426 10.2543 20.9564C10.0405 21.1702 9.76805 21.3158 9.47148 21.3748C9.17491 21.4338 8.86751 21.4035 8.58814 21.2878C8.30878 21.1721 8.07 20.9761 7.90201 20.7247C7.73401 20.4733 7.64435 20.1777 7.64435 19.8753C7.64435 19.4698 7.80542 19.0809 8.09214 18.7942C8.37886 18.5075 8.76773 18.3464 9.17321 18.3464ZM8.9286 25.8027C9.05363 25.7189 9.19398 25.6605 9.34161 25.6309C9.48923 25.6014 9.64123 25.6012 9.78892 25.6305C9.9366 25.6597 10.0771 25.7178 10.2023 25.8014C10.3275 25.885 10.435 25.9925 10.5186 26.1177C11.0427 26.9019 11.7522 27.5448 12.5841 27.9894C13.416 28.4341 14.3447 28.6667 15.2879 28.6667C16.2312 28.6667 17.1599 28.4341 17.9918 27.9894C18.8237 27.5448 19.5331 26.9019 20.0572 26.1177C20.228 25.8686 20.4902 25.697 20.7867 25.6401C21.0833 25.5832 21.3904 25.6455 21.6412 25.8137C21.8921 25.9818 22.0665 26.242 22.1266 26.538C22.1867 26.8339 22.1276 27.1416 21.9622 27.3943C21.2287 28.4917 20.2359 29.3912 19.0717 30.0134C17.9075 30.6355 16.6079 30.9609 15.2879 30.9609C13.968 30.9609 12.6683 30.6355 11.5042 30.0134C10.34 29.3912 9.34719 28.4917 8.61365 27.3943C8.52935 27.2692 8.47062 27.1288 8.44082 26.981C8.41102 26.8331 8.41075 26.6809 8.44002 26.533C8.46929 26.3851 8.52753 26.2444 8.61138 26.1191C8.69523 25.9937 8.80304 25.8862 8.9286 25.8027V25.8027ZM21.4042 21.4042C21.1018 21.4042 20.8062 21.3145 20.5548 21.1465C20.3034 20.9785 20.1074 20.7397 19.9917 20.4604C19.876 20.181 19.8457 19.8736 19.9047 19.577C19.9637 19.2805 20.1093 19.008 20.3231 18.7942C20.5369 18.5804 20.8093 18.4348 21.1059 18.3758C21.4025 18.3168 21.7099 18.3471 21.9892 18.4628C22.2686 18.5785 22.5074 18.7745 22.6754 19.0259C22.8434 19.2773 22.933 19.5729 22.933 19.8753C22.933 20.2808 22.772 20.6697 22.4852 20.9564C22.1985 21.2431 21.8096 21.4042 21.4042 21.4042ZM9.93765 8.40878C9.93765 6.9896 10.5014 5.62854 11.5049 4.62502C12.5084 3.62151 13.8695 3.05774 15.2887 3.05774C16.7079 3.05774 18.0689 3.62151 19.0724 4.62502C20.076 5.62854 20.6397 6.9896 20.6397 8.40878V8.791C20.6397 8.89237 20.5995 8.98959 20.5278 9.06127C20.4561 9.13295 20.3589 9.17321 20.2575 9.17321H10.3199C10.2185 9.17321 10.1213 9.13295 10.0496 9.06127C9.97792 8.98959 9.93765 8.89237 9.93765 8.791V8.40878Z" fill="#0E8BFF"/>
<rect x="3.71149" y="13.8102" width="21.463" height="20.1916" fill="#0E8BFF"/>
<path d="M11.1134 17.7784C11.196 17.7784 11.2768 17.8029 11.3455 17.8488C11.4142 17.8948 11.4677 17.96 11.4994 18.0363C11.531 18.1127 11.5393 18.1967 11.5231 18.2777C11.507 18.3587 11.4672 18.4332 11.4088 18.4916C11.3504 18.55 11.2759 18.5898 11.1949 18.6059C11.1139 18.622 11.0299 18.6138 10.9535 18.5822C10.8772 18.5505 10.812 18.497 10.7661 18.4283C10.7201 18.3596 10.6956 18.2788 10.6956 18.1962C10.6956 18.0854 10.7397 17.9791 10.818 17.9008C10.8964 17.8225 11.0026 17.7784 11.1134 17.7784" stroke="white" stroke-width="3.89905" stroke-linecap="round" stroke-linejoin="round"/>
<path d="M19.4684 17.7784C19.5511 17.7784 19.6318 17.8029 19.7005 17.8488C19.7692 17.8948 19.8228 17.96 19.8544 18.0363C19.886 18.1127 19.8943 18.1967 19.8782 18.2777C19.8621 18.3587 19.8223 18.4332 19.7638 18.4916C19.7054 18.55 19.631 18.5898 19.5499 18.6059C19.4689 18.622 19.3849 18.6138 19.3086 18.5822C19.2322 18.5505 19.167 18.497 19.1211 18.4283C19.0752 18.3596 19.0507 18.2788 19.0507 18.1962C19.0507 18.0854 19.0947 17.9791 19.173 17.9008C19.2514 17.8225 19.3576 17.7784 19.4684 17.7784" stroke="white" stroke-width="3.89905" stroke-linecap="round" stroke-linejoin="round"/>
<path d="M22.0285 24.8803C21.4062 26.1361 20.4455 27.1931 19.2547 27.932C18.0638 28.671 16.6902 29.0625 15.2887 29.0625C13.8872 29.0625 12.5136 28.671 11.3227 27.932C10.1319 27.1931 9.17117 26.1361 8.54892 24.8803" stroke="white" stroke-width="2.78504" stroke-linecap="round" stroke-linejoin="round"/>
</svg>
