<svg width="275" height="304" viewBox="0 0 275 304" fill="none" xmlns="http://www.w3.org/2000/svg">
<rect x="0.387695" y="0.03125" width="274.041" height="303.414" fill="#7694CD"/>
<rect x="19.1738" y="20.9346" width="235.35" height="165.334" rx="22.3775" fill="#2A4781"/>
<mask id="mask0" mask-type="alpha" maskUnits="userSpaceOnUse" x="19" y="21" width="236" height="166">
<rect x="19.1758" y="21.0171" width="235.35" height="165.334" rx="22.3775" fill="#F2F4FF"/>
</mask>
<g mask="url(#mask0)">
<path d="M100.756 50.4468C99.7422 45.2203 102.675 39.7307 107.84 38.4428L128.92 33.1871C134.003 31.9198 139.118 35.2577 140.745 40.2371C142.259 44.8673 144.55 50.2265 147.796 53.8835C154.652 61.6085 97.3619 74.3385 100.662 65.6353C102.262 61.4159 101.729 55.4618 100.756 50.4468Z" fill="#D7E3F5"/>
<path d="M128.863 163.179C130.421 168.27 135.588 171.741 140.753 170.453L161.833 165.197C166.916 163.93 169.865 158.581 168.964 153.42C168.127 148.622 167.634 142.814 168.783 138.061C171.21 128.022 114.649 143.678 121.649 149.813C125.043 152.788 127.368 158.295 128.863 163.179Z" fill="#D7E3F5"/>
<rect x="98.5859" y="81.0178" width="64.6707" height="64.6707" rx="14.8204" transform="rotate(-14 98.5859 81.0178)" fill="#F5FAFF"/>
<path d="M168.461 71.7255C168.33 71.1997 168.414 70.6434 168.693 70.1789L169.011 69.6484C169.291 69.1839 169.743 68.8493 170.268 68.7182L171.232 68.4781C172.326 68.2051 173.435 68.8714 173.708 69.9663L176.674 81.8611C176.947 82.956 176.281 84.0649 175.186 84.3379L174.354 84.5452C173.752 84.6953 173.114 84.5636 172.621 84.1871L171.891 83.6304C171.522 83.349 171.26 82.9504 171.148 82.5003L168.461 71.7255Z" fill="#B6CBEC"/>
<rect x="85.8496" y="68.9194" width="80.8383" height="87.5749" rx="19.2058" transform="rotate(-14 85.8496 68.9194)" fill="#F7FAFF"/>
<rect x="97.2822" y="75.7888" width="61.9761" height="68.7126" rx="10.2158" transform="rotate(-14 97.2822 75.7888)" fill="#5E82C7"/>
</g>
<rect x="20.5791" y="211.361" width="204.162" height="18.4404" rx="9.22021" fill="#AAC2EF"/>
<rect x="20.5791" y="240.991" width="89.102" height="18.4404" rx="9.22021" fill="#D7E1F5"/>
</svg>
