<svg width="275" height="304" viewBox="0 0 275 304" fill="none" xmlns="http://www.w3.org/2000/svg">
<rect x="0.661133" y="0.265625" width="274.041" height="303.414" fill="#7694CD"/>
<rect x="19.4482" y="21.1692" width="235.35" height="165.334" rx="22.3775" fill="#2A4781"/>
<mask id="mask0" mask-type="alpha" maskUnits="userSpaceOnUse" x="19" y="21" width="236" height="166">
<rect x="19.4473" y="21.1846" width="235.35" height="165.334" rx="22.3775" fill="#F2F7FF"/>
</mask>
<g mask="url(#mask0)">
<rect x="61.876" y="28.2383" width="84.2177" height="164.225" rx="9.2727" transform="rotate(20 61.876 28.2383)" fill="#F7FAFF"/>
<rect x="65.9668" y="37.5508" width="70.1584" height="153.341" rx="9.2727" transform="rotate(20 65.9668 37.5508)" fill="#5E82C7"/>
<circle cx="72.7646" cy="51.9312" r="5.40989" transform="rotate(20 72.7646 51.9312)" fill="#F7FAFF"/>
<rect x="195.563" y="-14.395" width="84.2177" height="164.225" rx="9.2727" transform="rotate(20 195.563 -14.395)" fill="#F7FAFF"/>
<rect x="199.654" y="-5.08228" width="70.1584" height="148.128" rx="9.2727" transform="rotate(20 199.654 -5.08228)" fill="#5E82C7"/>
</g>
<rect x="20.8525" y="211.596" width="204.162" height="18.4404" rx="9.22021" fill="#98B1E0"/>
<rect x="20.8525" y="241.225" width="89.102" height="18.4404" rx="9.22021" fill="#EAECF7"/>
</svg>
