<svg width="272" height="272" viewBox="0 0 272 272" fill="none" xmlns="http://www.w3.org/2000/svg">
<rect width="272" height="272" fill="#0E8BFF"/>
<rect x="191.17" y="78.4598" width="28.0564" height="12.3278" fill="white"/>
<path d="M220.722 52.2215C220.97 52.2217 221.213 52.1536 221.425 52.0246C221.636 51.8956 221.808 51.7107 221.922 51.4904C222.035 51.27 222.086 51.0226 222.067 50.7754C222.049 50.5282 221.963 50.2908 221.819 50.0893L212.115 36.5032C211.865 36.1534 211.536 35.8684 211.153 35.672C210.771 35.4755 210.348 35.3732 209.918 35.3737H195.806C195.449 35.3737 195.106 35.5157 194.853 35.7685C194.6 36.0212 194.458 36.364 194.458 36.7215V50.8737C194.458 51.2312 194.6 51.574 194.853 51.8267C195.106 52.0795 195.449 52.2215 195.806 52.2215H220.722Z" fill="white"/>
<path d="M164.132 56.265C163.775 56.265 163.432 56.407 163.179 56.6598C162.926 56.9125 162.784 57.2554 162.784 57.6128V94.6781C162.784 95.393 163.068 96.0786 163.574 96.5842C164.079 97.0897 164.765 97.3737 165.48 97.3737H222.089C222.804 97.3737 223.489 97.0897 223.995 96.5842C224.5 96.0786 224.784 95.393 224.784 94.6781V57.6128C224.784 57.2554 224.642 56.9125 224.39 56.6598C224.137 56.407 223.794 56.265 223.437 56.265H164.132ZM195.132 82.5476C195.132 82.1902 195.274 81.8473 195.527 81.5946C195.78 81.3418 196.123 81.1998 196.48 81.1998H215.35C215.707 81.1998 216.05 81.3418 216.303 81.5946C216.555 81.8473 216.697 82.1902 216.697 82.5476V87.9389C216.697 88.2964 216.555 88.6392 216.303 88.892C216.05 89.1448 215.707 89.2868 215.35 89.2868H196.48C196.123 89.2868 195.78 89.1448 195.527 88.892C195.274 88.6392 195.132 88.2964 195.132 87.9389V82.5476Z" fill="#B1DAFF"/>
<path d="M190.415 36.7215C190.415 36.364 190.273 36.0212 190.02 35.7685C189.767 35.5157 189.424 35.3737 189.067 35.3737H177.651C177.221 35.3732 176.798 35.4755 176.415 35.672C176.033 35.8684 175.704 36.1534 175.454 36.5032L165.75 50.0893C165.605 50.2908 165.519 50.5282 165.501 50.7754C165.483 51.0226 165.534 51.27 165.647 51.4904C165.761 51.7107 165.933 51.8956 166.144 52.0246C166.356 52.1536 166.599 52.2217 166.847 52.2215H189.067C189.424 52.2215 189.767 52.0795 190.02 51.8267C190.273 51.574 190.415 51.2312 190.415 50.8737V36.7215Z" fill="white"/>
<rect x="30" y="35.3737" width="99" height="62" rx="8" fill="white"/>
<rect x="35" y="41.3737" width="38" height="10" rx="3" fill="#0E8BFF"/>
<circle cx="40" cy="85.3737" r="5" fill="#0E8BFF"/>
<circle cx="74" cy="85.3737" r="5" fill="#0E8BFF"/>
<rect x="47" y="83.3737" width="15" height="4" rx="2" fill="#D1E9FF"/>
<rect x="81" y="83.3737" width="20" height="4" rx="2" fill="#D1E9FF"/>
<rect x="35" y="56.3737" width="27" height="5" rx="2.5" fill="#D1E9FF"/>
<rect x="35" y="64.3737" width="54" height="5" rx="2.5" fill="#D1E9FF"/>
<path d="M168.691 154.31C170.17 154.31 171.588 153.722 172.634 152.677C173.68 151.631 174.267 150.213 174.267 148.734V140.369C174.267 135.193 176.324 130.229 179.984 126.568C183.644 122.908 188.608 120.852 193.784 120.852C198.961 120.852 203.925 122.908 207.585 126.568C211.245 130.229 213.301 135.193 213.301 140.369V148.734C213.301 150.213 213.889 151.631 214.935 152.677C215.981 153.722 217.399 154.31 218.878 154.31C220.357 154.31 221.775 153.722 222.821 152.677C223.867 151.631 224.454 150.213 224.454 148.734V140.369C224.454 132.235 221.223 124.434 215.471 118.682C209.719 112.931 201.919 109.699 193.784 109.699C185.65 109.699 177.849 112.931 172.098 118.682C166.346 124.434 163.115 132.235 163.115 140.369V148.734C163.115 150.213 163.702 151.631 164.748 152.677C165.794 153.722 167.212 154.31 168.691 154.31Z" fill="#8EC9FF"/>
<path d="M228.677 144.497H158.887C156.796 144.53 154.804 145.39 153.347 146.889C151.89 148.388 151.087 150.404 151.113 152.494L143.598 220.146C143.571 222.236 144.374 224.252 145.831 225.751C147.289 227.25 149.281 228.11 151.371 228.142H236.192C238.284 228.111 240.277 227.252 241.736 225.753C243.194 224.254 243.998 222.237 243.971 220.146L236.456 152.494C236.482 150.403 235.678 148.386 234.22 146.887C232.762 145.388 230.768 144.528 228.677 144.497Z" fill="white"/>
<path d="M106.117 143.196C105.583 143.126 105.092 142.863 104.738 142.456C104.384 142.049 104.191 141.527 104.196 140.988V139.583C104.196 138.412 103.731 137.288 102.902 136.46C102.074 135.631 100.95 135.166 99.7788 135.166H32.4172C31.2457 135.166 30.1221 135.631 29.2938 136.46C28.4654 137.288 28 138.412 28 139.583V203.632C28.0058 208.902 30.1019 213.954 33.8284 217.681C37.5548 221.407 42.6072 223.503 47.8772 223.509H84.3187C88.7541 223.5 93.0587 222.006 96.5454 219.265C100.032 216.523 102.5 212.693 103.555 208.385C103.664 207.944 103.905 207.548 104.246 207.249C104.587 206.95 105.013 206.764 105.464 206.715C113.247 205.871 120.451 202.202 125.71 196.402C130.969 190.602 133.918 183.075 133.998 175.246C134.079 167.417 131.285 159.831 126.147 153.924C121.008 148.017 113.882 144.2 106.117 143.196V143.196ZM44.5643 197.006C44.5643 197.885 44.2153 198.727 43.594 199.349C42.9727 199.97 42.1301 200.319 41.2515 200.319C40.3728 200.319 39.5302 199.97 38.9089 199.349C38.2876 198.727 37.9386 197.885 37.9386 197.006V192.589C37.9386 191.71 38.2876 190.868 38.9089 190.246C39.5302 189.625 40.3728 189.276 41.2515 189.276C42.1301 189.276 42.9727 189.625 43.594 190.246C44.2153 190.868 44.5643 191.71 44.5643 192.589V197.006ZM44.5643 179.338C44.5643 180.216 44.2153 181.059 43.594 181.68C42.9727 182.301 42.1301 182.65 41.2515 182.65C40.3728 182.65 39.5302 182.301 38.9089 181.68C38.2876 181.059 37.9386 180.216 37.9386 179.338V161.669C37.9386 160.79 38.2876 159.948 38.9089 159.326C39.5302 158.705 40.3728 158.356 41.2515 158.356C42.1301 158.356 42.9727 158.705 43.594 159.326C44.2153 159.948 44.5643 160.79 44.5643 161.669V179.338ZM106.926 195.204C106.601 195.283 106.262 195.287 105.935 195.216C105.609 195.145 105.302 195.001 105.039 194.794C104.776 194.587 104.564 194.323 104.418 194.023C104.272 193.722 104.196 193.392 104.196 193.057V156.784C104.196 156.449 104.272 156.119 104.418 155.818C104.564 155.517 104.776 155.254 105.039 155.047C105.302 154.84 105.609 154.696 105.935 154.625C106.262 154.554 106.601 154.558 106.926 154.637C111.493 155.718 115.561 158.309 118.472 161.99C121.383 165.671 122.967 170.227 122.967 174.92C122.967 179.614 121.383 184.169 118.472 187.85C115.561 191.532 111.493 194.123 106.926 195.204V195.204Z" fill="#B1DAFF"/>
</svg>
