<svg width="272" height="272" viewBox="0 0 272 272" fill="none" xmlns="http://www.w3.org/2000/svg">
<rect width="272" height="272" fill="#0E8BFF"/>
<line x1="24.75" y1="77.8081" x2="247.25" y2="77.8082" stroke="#98CEFF" stroke-width="3.10465" stroke-linecap="round"/>
<line x1="24.75" y1="146.11" x2="247.25" y2="146.11" stroke="#98CEFF" stroke-width="3.10465" stroke-linecap="round" stroke-dasharray="8.28 8.28"/>
<line x1="24.75" y1="215.448" x2="247.25" y2="215.448" stroke="#98CEFF" stroke-width="3.10465" stroke-linecap="round"/>
<path d="M39.7559 103.901V79.3605H157.854V103.901H112.801V213.565H85.0014V103.901H39.7559Z" fill="white"/>
<path d="M179.437 184.952V134.607H158.639V112.253H179.437V86.3996L206.068 80.3737V112.253H234.836V134.607H206.068V179.509C206.068 184.304 207.104 187.673 209.178 189.617C211.251 191.561 214.879 192.533 220.063 192.533C222.525 192.533 224.858 192.403 227.061 192.144C229.264 191.755 231.661 191.107 234.253 190.2V211.971C231.402 212.878 227.968 213.591 223.951 214.109C219.933 214.757 216.499 215.081 213.648 215.081C202.374 215.081 193.822 212.554 187.99 207.5C182.288 202.317 179.437 194.801 179.437 184.952Z" fill="#C0E1FF"/>
<line x1="39.7558" y1="53.4884" x2="39.7558" y2="165.256" stroke="#66AFFF" stroke-width="4.13953" stroke-linecap="round"/>
<circle cx="39.7558" cy="100.058" r="12.4186" fill="#0457B9"/>
<circle cx="39.7558" cy="49.3488" r="8.79651" fill="#F8F8FC" stroke="#9FC7FF" stroke-width="3.10465"/>
<circle cx="39.7558" cy="163.186" r="8.79651" fill="#F8F8FC" stroke="#9FC7FF" stroke-width="3.10465"/>
</svg>
