<svg width="272" height="272" viewBox="0 0 272 272" fill="none" xmlns="http://www.w3.org/2000/svg">
<rect width="272" height="272" fill="#0E8BFF"/>
<rect x="39.8462" y="57.0563" width="89.2019" height="173.944" rx="14.2723" fill="white"/>
<rect x="47.8743" y="66.8685" width="73.1455" height="155.211" rx="9.81221" fill="#0E8BFF"/>
<rect x="58.5786" y="59.7324" width="53.5211" height="14.2723" rx="7.13615" fill="white"/>
<path d="M177.145 93.8725C177.378 89.4455 180.853 85.601 185.286 85.601H203.376C207.738 85.601 211.198 89.3282 211.51 93.6791C211.8 97.7249 212.572 102.516 214.457 106.125C218.441 113.747 169.589 112.492 174.009 106.125C176.151 103.038 176.921 98.1204 177.145 93.8725Z" fill="#B4DBFF"/>
<path d="M177.145 190.616C177.378 195.043 180.853 198.887 185.286 198.887H203.376C207.738 198.887 211.198 195.16 211.51 190.809C211.8 186.763 212.572 181.972 214.457 178.363C218.441 170.741 169.589 171.996 174.009 178.363C176.151 181.45 176.921 186.368 177.145 190.616Z" fill="#B4DBFF"/>
<rect x="169.233" y="118.135" width="53.8498" height="53.8498" rx="12.3406" fill="#F5FAFF"/>
<path d="M227.56 124.703C227.56 124.252 227.739 123.819 228.058 123.5L228.423 123.136C228.742 122.817 229.175 122.637 229.626 122.637H230.452C231.392 122.637 232.154 123.399 232.154 124.339V134.546C232.154 135.486 231.392 136.248 230.452 136.248H229.739C229.222 136.248 228.733 136.013 228.41 135.609L227.933 135.013C227.692 134.711 227.56 134.336 227.56 133.95V124.703Z" fill="#B4DBFF"/>
<rect x="161.38" y="105.795" width="67.3122" height="72.9215" rx="15.9922" fill="white"/>
<rect x="169.233" y="113.648" width="51.606" height="57.2154" rx="8.50648" fill="#0E8BFF"/>
<line x1="147.334" y1="59.2864" x2="147.335" y2="228.77" stroke="#98CEFF" stroke-width="2.67606" stroke-linecap="round" stroke-dasharray="8.92 8.92"/>
<line x1="137.522" y1="229.662" x2="157.147" y2="229.662" stroke="white" stroke-width="2.67606" stroke-linecap="round"/>
<line x1="137.522" y1="58.3944" x2="157.147" y2="58.3944" stroke="white" stroke-width="2.67606" stroke-linecap="round"/>
<line x1="42.9682" y1="46.7981" x2="125.034" y2="46.7981" stroke="#98CEFF" stroke-width="2.67606" stroke-linecap="round" stroke-dasharray="8.92 8.92"/>
<line x1="41.1842" y1="42.338" x2="41.1842" y2="50.3662" stroke="white" stroke-width="2.67606" stroke-linecap="round"/>
<line x1="126.818" y1="42.338" x2="126.818" y2="50.3662" stroke="white" stroke-width="2.67606" stroke-linecap="round"/>
</svg>
