<svg width="34" height="35" viewBox="0 0 34 35" fill="none" xmlns="http://www.w3.org/2000/svg">
<path d="M20.4105 9.6267H13.9404V4.23501C13.9404 3.37703 14.2813 2.5542 14.8879 1.94751C15.4946 1.34083 16.3175 1 17.1754 1C18.0334 1 18.8563 1.34083 19.4629 1.94751C20.0696 2.5542 20.4105 3.37703 20.4105 4.23501V9.6267Z" stroke="white" stroke-width="1.5" stroke-linecap="round" stroke-linejoin="round"/>
<path d="M5.31335 26.8801V30.1151L3.15668 33.3501L1 30.1151V13.94C1 13.368 1.22722 12.8195 1.63168 12.415C2.03613 12.0105 2.58469 11.7833 3.15668 11.7833C3.72866 11.7833 4.27722 12.0105 4.68168 12.415C5.08613 12.8195 5.31335 13.368 5.31335 13.94V20.41" stroke="white" stroke-width="1.5" stroke-linecap="round" stroke-linejoin="round"/>
<path d="M1 26.88H7.47003L20.4101 9.62659L30.7938 24.7305C31.1912 25.3088 31.3497 26.0183 31.236 26.7107C31.1224 27.4031 30.7455 28.0248 30.1841 28.4457C29.8943 28.6632 29.5639 28.8206 29.2124 28.9085C28.8608 28.9964 28.4952 29.0131 28.1372 28.9577C27.7791 28.9022 27.4357 28.7757 27.1272 28.5855C26.8187 28.3954 26.5514 28.1455 26.3409 27.8505L16.7883 14.4561" stroke="white" stroke-width="1.5" stroke-linecap="round" stroke-linejoin="round"/>
<path d="M13.9401 9.62659L5.31348 20.41" stroke="white" stroke-width="1.5" stroke-linecap="round" stroke-linejoin="round"/>
<path d="M30.1836 28.4458L32.2713 31.1934" stroke="white" stroke-width="1.5" stroke-linecap="round" stroke-linejoin="round"/>
<path d="M1 20.41H5.31335" stroke="white" stroke-width="1.5" stroke-linecap="round" stroke-linejoin="round"/>
</svg>
